<?xml version="1.0" encoding="utf-8"?>
<!-- Generator: Adobe Illustrator 19.0.1, SVG Export Plug-In . SVG Version: 6.00 Build 0)  -->
<svg version="1.1" id="Layer_1" xmlns="http://www.w3.org/2000/svg" xmlns:xlink="http://www.w3.org/1999/xlink" x="0px" y="0px"
	 viewBox="0 0 40 40" style="enable-background:new 0 0 40 40;" xml:space="preserve">
<style type="text/css">
	.st0{fill:#FFFFFF;}
</style>
<g>
	<g>
		<path class="st0" d="M20,0C9,0,0,9,0,20c0,11,9,20,20,20s20-9,20-20C40,9,31,0,20,0z M20,38c-9.9,0-18-8.1-18-18
			c0-9.9,8.1-18,18-18c9.9,0,18,8.1,18,18C38,29.9,29.9,38,20,38z M7.5,10C5.3,12.7,4,16.2,4,20c0,1.1,0.1,2.1,0.3,3.2L11.9,10H7.5z
			 M17.6,35.8c0.8,0.1,1.6,0.2,2.4,0.2c4.1,0,7.8-1.5,10.6-4H15.4L17.6,35.8z M22.4,4.2C21.6,4.1,20.8,4,20,4c-4.1,0-7.8,1.5-10.6,4
			h15.2L22.4,4.2z M5.1,25.8c1.7,4.4,5.3,7.8,9.8,9.3L7.3,22L5.1,25.8z M34.9,14.2c-1.7-4.4-5.3-7.8-9.8-9.3L32.7,18L34.9,14.2z
			 M35.7,16.8L28.1,30h4.4c2.2-2.7,3.5-6.2,3.5-10C36,18.9,35.9,17.9,35.7,16.8z"/>
	</g>
</g>
</svg>
