<?xml version="1.0" encoding="utf-8"?>
<!-- Generator: Adobe Illustrator 19.0.1, SVG Export Plug-In . SVG Version: 6.00 Build 0)  -->
<svg version="1.1" id="Layer_1" xmlns="http://www.w3.org/2000/svg" xmlns:xlink="http://www.w3.org/1999/xlink" x="0px" y="0px"
	 viewBox="0 0 40 40" style="enable-background:new 0 0 40 40;" xml:space="preserve">
<style type="text/css">
	.st0{fill:#FFFFFF;}
</style>
<g>
	<path class="st0" d="M20,0C9,0,0,9,0,20c0,11,9,20,20,20s20-9,20-20C40,9,31,0,20,0z M20,38c-9.9,0-18-8.1-18-18
		c0-9.9,8.1-18,18-18s18,8.1,18,18C38,29.9,29.9,38,20,38z"/>
</g>
<g>
	<path class="st0" d="M5.2,14C4.4,15.9,4,17.9,4,20c0,2.9,0.8,5.5,2.1,7.9L14,14H5.2z"/>
</g>
<g>
	<path class="st0" d="M22.2,35.8c5-0.7,9.2-3.7,11.6-7.8H17.7L22.2,35.8z"/>
</g>
<g>
	<path class="st0" d="M17.8,4.2c-5,0.7-9.2,3.7-11.6,7.8h16.2L17.8,4.2z"/>
</g>
<g>
	<path class="st0" d="M7.4,29.8C10.3,33.6,14.9,36,20,36l-8.1-14L7.4,29.8z"/>
</g>
<g>
	<path class="st0" d="M33.9,12.1L26,26h8.8c0.8-1.9,1.2-3.9,1.2-6C36,17.1,35.2,14.5,33.9,12.1z"/>
</g>
<g>
	<path class="st0" d="M32.6,10.2C29.7,6.4,25.1,4,20,4l8.1,14L32.6,10.2z"/>
</g>
</svg>
